<?xml version="1.0" standalone="no"?>
<!DOCTYPE svg PUBLIC "-//W3C//DTD SVG 20010904//EN"
 "http://www.w3.org/TR/2001/REC-SVG-20010904/DTD/svg10.dtd">
<svg version="1.0" xmlns="http://www.w3.org/2000/svg"
 width="394.000000pt" height="394.000000pt" viewBox="0 0 394.000000 394.000000"
 preserveAspectRatio="xMidYMid meet">
<metadata>
Created by potrace 1.14, written by Peter Selinger 2001-2017
</metadata>
<g transform="translate(0.000000,394.000000) scale(0.100000,-0.100000)"
fill="#000000" stroke="none">
<path d="M2010 3620 c0 -3 -15 -6 -32 -5 -18 0 -54 -5 -80 -11 -26 -7 -49 -9
-52 -6 -3 3 -6 0 -6 -7 0 -7 -4 -10 -9 -7 -10 7 -176 -58 -191 -74 -3 -3 -16
-11 -30 -18 -14 -7 -46 -25 -71 -40 -25 -15 -205 -119 -400 -231 -195 -112
-375 -216 -401 -232 -27 -15 -75 -43 -107 -60 -33 -18 -63 -39 -65 -46 -3 -8
-2 -12 3 -9 5 3 14 -1 21 -9 7 -8 19 -15 26 -15 8 0 14 -4 14 -10 0 -5 4 -10
9 -10 5 0 56 -27 113 -60 56 -33 107 -60 111 -60 4 0 105 56 223 125 119 69
218 125 220 125 3 0 10 5 17 10 7 6 68 43 137 82 69 39 143 82 165 94 22 13
78 45 123 71 46 27 109 63 140 81 106 62 121 66 217 67 77 0 98 -4 140 -25 32
-17 56 -37 66 -58 32 -63 10 -89 -162 -187 -67 -38 -130 -73 -138 -78 -9 -4
-34 -19 -56 -33 -22 -13 -48 -27 -57 -31 -10 -3 -18 -10 -18 -15 0 -5 -4 -6
-10 -3 -5 3 -10 1 -10 -4 0 -6 -5 -11 -11 -11 -6 0 -31 -13 -56 -30 -24 -16
-46 -30 -49 -30 -3 0 -44 -23 -92 -51 -48 -29 -100 -60 -117 -69 -49 -28 -225
-130 -298 -172 l-69 -40 89 -50 c48 -28 113 -64 143 -80 30 -17 59 -34 64 -39
10 -9 16 -6 334 178 117 68 216 123 219 123 4 0 14 6 22 14 9 7 41 27 71 43
90 50 275 157 280 163 3 4 25 16 50 29 25 12 59 31 75 42 74 47 119 62 195 62
91 1 144 -13 187 -50 51 -44 51 -105 0 -143 -27 -20 -107 -67 -272 -160 -16
-10 -187 -108 -378 -219 -192 -110 -353 -201 -358 -201 -5 0 -9 -3 -9 -7 0 -5
-18 -17 -41 -27 -22 -11 -42 -23 -45 -27 -2 -4 22 -22 53 -40 32 -18 60 -35
63 -38 3 -3 19 -13 35 -21 17 -8 56 -30 88 -49 l58 -34 37 19 c20 11 39 22 42
25 3 3 30 19 60 35 30 16 59 33 65 37 16 12 336 197 341 197 3 0 17 8 32 19
15 10 148 88 296 172 275 158 338 204 377 278 32 62 36 146 10 201 -56 119
-183 207 -368 255 -54 14 -78 18 -182 30 -52 6 -49 4 -53 35 -11 70 -96 165
-198 220 -36 19 -67 35 -70 36 -3 0 -12 4 -20 7 -42 18 -179 49 -225 52 -29 1
-57 5 -63 9 -14 9 -162 6 -162 -4z"/>
<path d="M2042 3279 c-23 -5 -75 -26 -115 -48 -144 -80 -183 -102 -212 -121
-16 -11 -39 -24 -51 -29 -11 -5 -51 -28 -88 -50 -36 -23 -70 -41 -75 -41 -5 0
-16 -6 -23 -13 -7 -7 -41 -29 -75 -48 -49 -27 -218 -124 -355 -204 -127 -74
-176 -100 -189 -98 -15 2 -229 120 -239 133 -5 6 -58 30 -65 30 -3 0 -5 -27
-5 -59 l0 -59 138 -80 c75 -44 146 -84 157 -90 18 -9 46 4 185 85 91 53 184
107 208 120 23 13 93 53 154 89 61 35 112 64 113 64 2 0 34 19 71 42 78 47
236 138 239 138 2 0 34 19 71 41 97 59 128 70 209 74 73 3 103 14 153 59 12
11 22 22 22 26 0 11 -93 40 -140 43 -25 2 -64 0 -88 -4z"/>
<path d="M2636 2923 c-10 -3 -37 -15 -60 -27 -132 -72 -181 -101 -184 -108 -2
-4 -8 -8 -13 -8 -5 0 -74 -38 -153 -84 -79 -46 -168 -98 -198 -114 -29 -17
-163 -94 -297 -171 -134 -78 -249 -141 -256 -141 -6 0 -32 14 -58 30 -26 17
-49 30 -51 30 -2 0 -46 25 -97 55 -51 30 -95 52 -97 50 -10 -10 -1 -120 11
-127 28 -18 105 -63 157 -91 30 -16 62 -35 70 -41 49 -38 66 -40 121 -10 30
16 56 32 59 35 3 3 30 19 60 35 30 16 59 33 65 37 8 7 541 314 685 395 25 14
77 44 117 68 96 56 123 65 213 66 31 0 65 7 80 16 34 21 70 54 70 63 0 10 -32
28 -63 36 -28 7 -156 11 -181 6z"/>
<path d="M3341 2692 c-38 -74 -91 -116 -296 -233 -71 -40 -142 -81 -156 -89
-14 -8 -80 -46 -145 -83 -65 -38 -157 -91 -203 -118 -46 -27 -86 -49 -89 -49
-3 0 -13 -6 -21 -14 -9 -7 -41 -26 -71 -42 -30 -16 -57 -31 -60 -34 -3 -4 -32
-21 -65 -40 -33 -18 -79 -44 -103 -57 l-42 -24 -58 35 c-31 19 -84 49 -117 67
-33 17 -62 34 -65 38 -3 3 -19 13 -36 22 l-30 16 0 -65 1 -65 154 -88 154 -88
56 32 c31 17 58 34 61 37 3 3 21 13 40 22 19 9 52 28 73 42 21 14 40 26 43 26
2 0 34 18 70 40 36 22 67 40 69 40 2 0 49 27 105 60 56 33 106 60 111 60 5 0
9 5 9 10 0 6 4 10 10 10 20 0 484 276 526 313 65 57 95 115 102 192 2 36 2 65
-1 65 -4 0 -15 -17 -26 -38z"/>
<path d="M550 2516 c0 -36 4 -66 8 -66 9 0 209 -112 227 -127 6 -5 26 -16 46
-26 l37 -17 116 68 115 67 1 63 0 63 -27 -15 c-16 -8 -68 -37 -117 -66 -103
-59 -74 -64 -258 42 -160 93 -148 92 -148 14z"/>
<path d="M3340 2480 c-15 -37 -89 -110 -153 -150 -26 -16 -49 -30 -51 -30 -3
0 -162 -91 -226 -130 -109 -65 -294 -170 -301 -170 -5 0 -9 -4 -9 -10 0 -5 -5
-10 -10 -10 -6 0 -106 -56 -223 -124 -116 -68 -227 -131 -245 -140 l-33 -17
-150 86 c-83 47 -152 85 -154 85 -2 0 -3 -28 -2 -62 l2 -62 153 -88 154 -89
300 173 c165 95 321 185 347 200 25 15 53 31 61 35 8 4 86 49 173 100 88 51
163 93 167 93 5 0 15 6 22 13 7 6 31 24 53 38 98 65 146 137 153 232 5 63 -8
75 -28 27z"/>
<path d="M1169 2213 c-7 -105 0 -118 71 -155 14 -7 73 -41 131 -74 l107 -62
108 64 c60 35 113 65 118 67 9 3 16 114 8 130 -2 4 -15 -1 -30 -11 -15 -10
-34 -22 -42 -26 -8 -3 -49 -26 -90 -50 l-74 -44 -27 19 c-14 10 -28 16 -31 13
-3 -2 -11 2 -18 11 -7 8 -19 15 -26 15 -8 0 -14 5 -14 10 0 6 -4 10 -10 10 -8
0 -64 31 -147 82 -32 19 -33 19 -34 1z"/>
<path d="M907 952 c-3 -6 -1 -295 2 -315 0 -4 14 -6 29 -5 l29 2 -1 112 c-1
62 2 110 6 108 3 -2 16 -35 29 -72 44 -133 54 -151 88 -150 27 1 31 6 54 72
14 39 30 88 37 109 6 20 15 37 18 37 4 0 7 -48 7 -107 l0 -108 30 0 30 0 0
160 0 160 -44 3 c-28 2 -47 -2 -52 -10 -5 -7 -25 -62 -46 -123 -20 -60 -39
-103 -41 -95 -3 8 -22 62 -42 120 l-37 105 -46 2 c-26 1 -48 -1 -50 -5z"/>
<path d="M1450 950 c-8 -5 -11 -10 -7 -10 4 0 2 -10 -5 -22 -6 -13 -13 -27
-14 -33 -5 -24 -57 -151 -66 -162 -6 -7 -8 -13 -4 -13 3 0 -1 -16 -9 -36 -19
-46 -20 -44 14 -44 24 0 31 6 45 39 l15 40 67 -2 c65 -2 66 -3 83 -37 12 -26
23 -35 44 -37 15 -1 27 2 27 7 0 9 -41 121 -89 245 -25 63 -31 70 -57 72 -16
1 -36 -2 -44 -7z m64 -128 l25 -62 -32 -1 c-33 -1 -60 1 -65 5 -1 2 8 31 20
64 12 34 23 60 25 58 2 -2 14 -31 27 -64z"/>
<path d="M1686 948 c3 -5 28 -41 54 -80 l49 -70 -54 -79 c-30 -43 -55 -80 -55
-82 0 -3 14 -4 31 -3 27 1 38 10 71 59 l40 59 39 -58 c34 -52 43 -59 74 -60
l36 -2 -18 27 c-10 14 -35 52 -57 84 l-39 57 52 74 c28 41 51 77 51 80 0 3
-13 6 -28 6 -23 0 -36 -11 -69 -56 l-41 -56 -29 43 c-15 24 -33 49 -39 56 -13
14 -76 15 -68 1z"/>
<path d="M2045 952 c-7 -4 -11 -66 -10 -162 l0 -155 30 0 c29 0 30 1 31 50 2
78 2 76 32 72 26 -3 51 -35 82 -105 7 -17 17 -22 40 -20 16 1 30 6 30 11 0 4
-14 33 -30 63 l-31 54 26 23 c14 12 28 37 31 54 6 41 -20 99 -49 108 -34 10
-171 16 -182 7z m146 -57 c26 -9 30 -44 8 -66 -15 -15 -31 -19 -61 -17 -39 3
-41 4 -43 38 -1 19 2 40 7 46 8 11 53 10 89 -1z"/>
<path d="M2359 908 c-3 -182 2 -210 47 -251 22 -21 36 -25 88 -25 111 1 138
40 141 198 0 58 -1 111 -3 118 -2 6 -17 12 -32 12 l-28 0 -1 -116 c0 -103 -3
-119 -20 -138 -30 -31 -76 -32 -106 -2 -24 24 -25 31 -25 141 l0 115 -30 0
c-29 0 -30 -1 -31 -52z"/>
<path d="M2798 946 c-44 -23 -65 -49 -73 -86 -11 -47 -13 -93 -6 -105 3 -5 7
-18 8 -28 9 -56 64 -93 145 -96 82 -3 141 38 155 108 16 86 -4 158 -55 196
-35 25 -136 32 -174 11z m129 -54 c22 -12 43 -60 43 -99 0 -36 -26 -90 -47
-97 -86 -27 -135 3 -139 87 -4 100 63 151 143 109z"/>
</g>
</svg>
