<?xml version="1.0" encoding="UTF-8"?>
<svg xmlns="http://www.w3.org/2000/svg" xmlns:xlink="http://www.w3.org/1999/xlink" width="100px" height="100px" viewBox="0 0 100 100" version="1.1">
<g id="surface1">
<path style="fill-rule:nonzero;fill:rgb(100%,100%,100%);fill-opacity:1;stroke-width:1;stroke-linecap:butt;stroke-linejoin:miter;stroke:rgb(0%,0%,0%);stroke-opacity:1;stroke-miterlimit:4;" d="M 119.62 0.07 C 119.07 0.12 117.31 0.29 115.74 0.42 C 79.38 3.7 45.32 23.31 23.75 53.46 C 11.74 70.23 4.05 89.24 1.15 109.38 C 0.13 116.42 0 118.49 0 128.03 C 0 137.56 0.13 139.63 1.15 146.67 C 8.11 194.73 42.32 235.11 88.71 250.08 C 97.02 252.75 105.78 254.58 115.74 255.68 C 119.62 256.11 136.38 256.11 140.26 255.68 C 157.45 253.78 172.02 249.53 186.38 242.19 C 188.58 241.07 189.01 240.77 188.71 240.52 C 188.51 240.37 179.12 227.78 167.86 212.57 L 147.39 184.92 L 121.74 146.97 C 107.63 126.1 96.02 109.03 95.92 109.03 C 95.82 109.01 95.72 125.87 95.67 146.47 C 95.59 182.52 95.57 183.97 95.12 184.82 C 94.47 186.05 93.97 186.55 92.92 187.1 C 92.11 187.5 91.41 187.57 87.64 187.57 L 83.31 187.57 L 82.16 186.85 C 81.4 186.37 80.85 185.75 80.48 185.02 L 79.95 183.9 L 80 133.73 L 80.08 83.54 L 80.85 82.56 C 81.25 82.04 82.11 81.36 82.71 81.04 C 83.73 80.54 84.13 80.49 88.46 80.49 C 93.57 80.49 94.42 80.69 95.74 82.14 C 96.12 82.54 110.01 103.45 126.62 128.65 C 143.24 153.85 165.96 188.25 177.12 205.14 L 197.39 235.84 L 198.42 235.16 C 207.5 229.26 217.11 220.85 224.72 212.09 C 240.91 193.5 251.35 170.84 254.85 146.67 C 255.87 139.63 256 137.56 256 128.03 C 256 118.49 255.87 116.42 254.85 109.38 C 247.89 61.32 213.68 20.94 167.29 5.97 C 159.11 3.32 150.4 1.5 140.64 0.39 C 138.23 0.14 121.69 -0.13 119.62 0.07 Z M 172.02 77.48 C 173.22 78.08 174.2 79.23 174.55 80.44 C 174.75 81.09 174.8 95 174.75 126.35 L 174.67 171.34 L 166.74 159.18 L 158.78 147.02 L 158.78 114.31 C 158.78 93.17 158.88 81.29 159.03 80.71 C 159.43 79.31 160.31 78.21 161.51 77.56 C 162.53 77.03 162.91 76.98 166.84 76.98 C 170.54 76.98 171.19 77.03 172.02 77.48 Z M 172.02 77.48 " transform="matrix(0.390625,0,0,0.390625,0,0)"/>
</g>
</svg>
